<mxfile host="65bd71144e">
    <diagram id="WWplgdjxl4bUwMbVQ0za" name="Page-1">
        <mxGraphModel dx="3753" dy="4297" grid="1" gridSize="10" guides="1" tooltips="1" connect="1" arrows="1" fold="1" page="1" pageScale="1" pageWidth="1100" pageHeight="850" math="0" shadow="0">
            <root>
                <mxCell id="0"/>
                <mxCell id="1" parent="0"/>
                <mxCell id="41" value="" style="edgeStyle=none;html=1;fontSize=12;" edge="1" parent="1" source="5" target="7">
                    <mxGeometry relative="1" as="geometry"/>
                </mxCell>
                <mxCell id="5" value="a = 10" style="rounded=0;whiteSpace=wrap;html=1;fontSize=12;" vertex="1" parent="1">
                    <mxGeometry x="218.5" y="-1535" width="155" height="60" as="geometry"/>
                </mxCell>
                <mxCell id="6" style="edgeStyle=orthogonalEdgeStyle;rounded=0;orthogonalLoop=1;jettySize=auto;html=1;entryX=0.5;entryY=0;entryDx=0;entryDy=0;fontSize=12;" edge="1" parent="1" source="7" target="9">
                    <mxGeometry relative="1" as="geometry"/>
                </mxCell>
                <mxCell id="7" value="b = 20, c = 30, d = 40" style="rounded=0;whiteSpace=wrap;html=1;fontSize=12;" vertex="1" parent="1">
                    <mxGeometry x="216" y="-1425" width="160" height="60" as="geometry"/>
                </mxCell>
                <mxCell id="8" value="" style="edgeStyle=orthogonalEdgeStyle;rounded=0;orthogonalLoop=1;jettySize=auto;html=1;fontSize=12;" edge="1" parent="1" source="9" target="12">
                    <mxGeometry relative="1" as="geometry"/>
                </mxCell>
                <mxCell id="9" value="แสดงผล&quot;This is&quot; a &quot;+&quot; b &quot;= &quot; a+b&amp;nbsp;" style="shape=parallelogram;perimeter=parallelogramPerimeter;whiteSpace=wrap;html=1;fixedSize=1;fontSize=12;" vertex="1" parent="1">
                    <mxGeometry x="133.5" y="-1305" width="325" height="60" as="geometry"/>
                </mxCell>
                <mxCell id="10" value="i &amp;lt; d - c" style="rhombus;whiteSpace=wrap;html=1;fontSize=12;" vertex="1" parent="1">
                    <mxGeometry x="246" y="-1025" width="100" height="90" as="geometry"/>
                </mxCell>
                <mxCell id="11" style="edgeStyle=orthogonalEdgeStyle;rounded=0;orthogonalLoop=1;jettySize=auto;html=1;entryX=0.5;entryY=0;entryDx=0;entryDy=0;fontSize=12;" edge="1" parent="1" source="12" target="10">
                    <mxGeometry relative="1" as="geometry"/>
                </mxCell>
                <mxCell id="12" value="i = 0" style="rounded=0;whiteSpace=wrap;html=1;fontSize=12;" vertex="1" parent="1">
                    <mxGeometry x="236" y="-1195" width="120" height="60" as="geometry"/>
                </mxCell>
                <mxCell id="13" value="i &amp;lt; c" style="rhombus;whiteSpace=wrap;html=1;fontSize=12;" vertex="1" parent="1">
                    <mxGeometry x="426" y="-915" width="80" height="80" as="geometry"/>
                </mxCell>
                <mxCell id="14" value="i == 8" style="rhombus;whiteSpace=wrap;html=1;fontSize=12;" vertex="1" parent="1">
                    <mxGeometry x="566" y="-705" width="80" height="80" as="geometry"/>
                </mxCell>
                <mxCell id="15" value="" style="endArrow=classic;html=1;rounded=0;exitX=1;exitY=0.5;exitDx=0;exitDy=0;fontSize=12;" edge="1" parent="1" source="13" target="27">
                    <mxGeometry width="50" height="50" relative="1" as="geometry">
                        <mxPoint x="596" y="-895" as="sourcePoint"/>
                        <mxPoint x="606" y="-825" as="targetPoint"/>
                        <Array as="points">
                            <mxPoint x="606" y="-875"/>
                        </Array>
                    </mxGeometry>
                </mxCell>
                <mxCell id="16" value="" style="endArrow=classic;html=1;rounded=0;exitX=1;exitY=0.5;exitDx=0;exitDy=0;entryX=0.5;entryY=0;entryDx=0;entryDy=0;fontSize=12;" edge="1" parent="1" source="14" target="28">
                    <mxGeometry width="50" height="50" relative="1" as="geometry">
                        <mxPoint x="646" y="-695" as="sourcePoint"/>
                        <mxPoint x="786" y="-605" as="targetPoint"/>
                        <Array as="points">
                            <mxPoint x="786" y="-665"/>
                        </Array>
                    </mxGeometry>
                </mxCell>
                <mxCell id="17" value="" style="endArrow=classic;html=1;rounded=0;exitX=1;exitY=0.5;exitDx=0;exitDy=0;entryX=0.5;entryY=0;entryDx=0;entryDy=0;fontSize=12;" edge="1" parent="1" source="10" target="13">
                    <mxGeometry width="50" height="50" relative="1" as="geometry">
                        <mxPoint x="446" y="-945" as="sourcePoint"/>
                        <mxPoint x="496" y="-995" as="targetPoint"/>
                        <Array as="points">
                            <mxPoint x="466" y="-980"/>
                        </Array>
                    </mxGeometry>
                </mxCell>
                <mxCell id="18" value="" style="ellipse;whiteSpace=wrap;html=1;aspect=fixed;fontSize=12;" vertex="1" parent="1">
                    <mxGeometry x="596" y="-475" width="20" height="20" as="geometry"/>
                </mxCell>
                <mxCell id="19" value="" style="endArrow=classic;html=1;rounded=0;exitX=0;exitY=0.5;exitDx=0;exitDy=0;entryX=0;entryY=0.5;entryDx=0;entryDy=0;fontSize=12;" edge="1" parent="1" source="14" target="18">
                    <mxGeometry width="50" height="50" relative="1" as="geometry">
                        <mxPoint x="386" y="-595" as="sourcePoint"/>
                        <mxPoint x="436" y="-645" as="targetPoint"/>
                        <Array as="points">
                            <mxPoint x="456" y="-665"/>
                            <mxPoint x="456" y="-465"/>
                        </Array>
                    </mxGeometry>
                </mxCell>
                <mxCell id="20" value="" style="endArrow=classic;html=1;rounded=0;entryX=1;entryY=0.5;entryDx=0;entryDy=0;exitX=0.5;exitY=1;exitDx=0;exitDy=0;fontSize=12;" edge="1" parent="1" source="28" target="18">
                    <mxGeometry width="50" height="50" relative="1" as="geometry">
                        <mxPoint x="786" y="-545" as="sourcePoint"/>
                        <mxPoint x="576" y="-545" as="targetPoint"/>
                        <Array as="points">
                            <mxPoint x="786" y="-465"/>
                        </Array>
                    </mxGeometry>
                </mxCell>
                <mxCell id="21" value="" style="edgeStyle=orthogonalEdgeStyle;rounded=0;orthogonalLoop=1;jettySize=auto;html=1;entryX=0.5;entryY=0;entryDx=0;entryDy=0;fontSize=12;" edge="1" parent="1" source="22" target="30">
                    <mxGeometry relative="1" as="geometry">
                        <mxPoint x="448.5" y="-335" as="targetPoint"/>
                    </mxGeometry>
                </mxCell>
                <mxCell id="22" value="" style="ellipse;whiteSpace=wrap;html=1;aspect=fixed;fontSize=12;" vertex="1" parent="1">
                    <mxGeometry x="456" y="-405" width="20" height="20" as="geometry"/>
                </mxCell>
                <mxCell id="23" value="" style="endArrow=classic;html=1;rounded=0;exitX=0;exitY=0.5;exitDx=0;exitDy=0;entryX=0;entryY=0.5;entryDx=0;entryDy=0;fontSize=12;" edge="1" parent="1" source="13" target="22">
                    <mxGeometry width="50" height="50" relative="1" as="geometry">
                        <mxPoint x="356" y="-755" as="sourcePoint"/>
                        <mxPoint x="396" y="-395" as="targetPoint"/>
                        <Array as="points">
                            <mxPoint x="326" y="-875"/>
                            <mxPoint x="326" y="-395"/>
                        </Array>
                    </mxGeometry>
                </mxCell>
                <mxCell id="24" value="" style="endArrow=classic;html=1;rounded=0;exitX=0.5;exitY=1;exitDx=0;exitDy=0;entryX=1;entryY=0.5;entryDx=0;entryDy=0;fontSize=12;" edge="1" parent="1" source="18" target="22">
                    <mxGeometry width="50" height="50" relative="1" as="geometry">
                        <mxPoint x="486" y="-365" as="sourcePoint"/>
                        <mxPoint x="536" y="-415" as="targetPoint"/>
                        <Array as="points">
                            <mxPoint x="606" y="-395"/>
                        </Array>
                    </mxGeometry>
                </mxCell>
                <mxCell id="25" value="" style="endArrow=classic;html=1;rounded=0;exitX=0;exitY=0.5;exitDx=0;exitDy=0;entryX=0.448;entryY=-0.012;entryDx=0;entryDy=0;entryPerimeter=0;fontSize=12;" edge="1" parent="1" source="10" target="44">
                    <mxGeometry width="50" height="50" relative="1" as="geometry">
                        <mxPoint x="186" y="-555" as="sourcePoint"/>
                        <mxPoint x="176" y="-25" as="targetPoint"/>
                        <Array as="points">
                            <mxPoint x="176" y="-980"/>
                        </Array>
                    </mxGeometry>
                </mxCell>
                <mxCell id="26" value="" style="edgeStyle=orthogonalEdgeStyle;rounded=0;orthogonalLoop=1;jettySize=auto;html=1;fontSize=12;" edge="1" parent="1" source="27" target="14">
                    <mxGeometry relative="1" as="geometry"/>
                </mxCell>
                <mxCell id="27" value="แสดงผล&quot;Here &quot;" style="shape=parallelogram;perimeter=parallelogramPerimeter;whiteSpace=wrap;html=1;fixedSize=1;fontSize=12;" vertex="1" parent="1">
                    <mxGeometry x="511" y="-835" width="190" height="60" as="geometry"/>
                </mxCell>
                <mxCell id="28" value="แสดงผล&quot;This is 8. &quot;" style="shape=parallelogram;perimeter=parallelogramPerimeter;whiteSpace=wrap;html=1;fixedSize=1;fontSize=12;" vertex="1" parent="1">
                    <mxGeometry x="676" y="-615" width="220" height="60" as="geometry"/>
                </mxCell>
                <mxCell id="29" value="" style="edgeStyle=orthogonalEdgeStyle;rounded=0;orthogonalLoop=1;jettySize=auto;html=1;fontSize=12;" edge="1" parent="1" source="30" target="31">
                    <mxGeometry relative="1" as="geometry"/>
                </mxCell>
                <mxCell id="30" value="แสดงผล&quot;ok&quot;" style="shape=parallelogram;perimeter=parallelogramPerimeter;whiteSpace=wrap;html=1;fixedSize=1;fontSize=12;" vertex="1" parent="1">
                    <mxGeometry x="356" y="-335" width="220" height="60" as="geometry"/>
                </mxCell>
                <mxCell id="31" value="&lt;font style=&quot;font-size: 12px;&quot;&gt;i += 1&lt;/font&gt;" style="rounded=0;whiteSpace=wrap;html=1;fontSize=12;" vertex="1" parent="1">
                    <mxGeometry x="406" y="-215" width="120" height="60" as="geometry"/>
                </mxCell>
                <mxCell id="32" value="" style="endArrow=classic;html=1;rounded=0;exitX=0.5;exitY=1;exitDx=0;exitDy=0;fontSize=12;" edge="1" parent="1" source="31">
                    <mxGeometry width="50" height="50" relative="1" as="geometry">
                        <mxPoint x="726" y="-135" as="sourcePoint"/>
                        <mxPoint x="296" y="-1085" as="targetPoint"/>
                        <Array as="points">
                            <mxPoint x="466" y="-65"/>
                            <mxPoint x="921" y="-65"/>
                            <mxPoint x="931" y="-1085"/>
                        </Array>
                    </mxGeometry>
                </mxCell>
                <mxCell id="33" value="T" style="text;html=1;strokeColor=none;fillColor=none;align=center;verticalAlign=middle;whiteSpace=wrap;rounded=0;fontSize=12;" vertex="1" parent="1">
                    <mxGeometry x="686" y="-695" width="60" height="30" as="geometry"/>
                </mxCell>
                <mxCell id="34" value="F" style="text;html=1;strokeColor=none;fillColor=none;align=center;verticalAlign=middle;whiteSpace=wrap;rounded=0;fontSize=12;" vertex="1" parent="1">
                    <mxGeometry x="486" y="-695" width="60" height="30" as="geometry"/>
                </mxCell>
                <mxCell id="35" value="F" style="text;html=1;strokeColor=none;fillColor=none;align=center;verticalAlign=middle;whiteSpace=wrap;rounded=0;fontSize=12;" vertex="1" parent="1">
                    <mxGeometry x="346" y="-905" width="60" height="30" as="geometry"/>
                </mxCell>
                <mxCell id="36" value="T" style="text;html=1;strokeColor=none;fillColor=none;align=center;verticalAlign=middle;whiteSpace=wrap;rounded=0;fontSize=12;" vertex="1" parent="1">
                    <mxGeometry x="526" y="-905" width="60" height="30" as="geometry"/>
                </mxCell>
                <mxCell id="37" value="T" style="text;html=1;strokeColor=none;fillColor=none;align=center;verticalAlign=middle;whiteSpace=wrap;rounded=0;fontSize=12;" vertex="1" parent="1">
                    <mxGeometry x="376" y="-1015" width="60" height="30" as="geometry"/>
                </mxCell>
                <mxCell id="38" value="F" style="text;html=1;strokeColor=none;fillColor=none;align=center;verticalAlign=middle;whiteSpace=wrap;rounded=0;fontSize=12;" vertex="1" parent="1">
                    <mxGeometry x="176" y="-1015" width="60" height="30" as="geometry"/>
                </mxCell>
                <mxCell id="43" value="" style="edgeStyle=none;html=1;fontSize=12;" edge="1" parent="1" source="42" target="5">
                    <mxGeometry relative="1" as="geometry"/>
                </mxCell>
                <mxCell id="42" value="Start" style="strokeWidth=1;html=1;shape=mxgraph.flowchart.terminator;whiteSpace=wrap;" vertex="1" parent="1">
                    <mxGeometry x="246" y="-1625" width="100" height="60" as="geometry"/>
                </mxCell>
                <mxCell id="44" value="End" style="strokeWidth=1;html=1;shape=mxgraph.flowchart.terminator;whiteSpace=wrap;" vertex="1" parent="1">
                    <mxGeometry x="131" y="-135" width="100" height="60" as="geometry"/>
                </mxCell>
            </root>
        </mxGraphModel>
    </diagram>
</mxfile>